<svg xmlns="http://www.w3.org/2000/svg" width="19.073" height="24.062" viewBox="0 0 19.073 24.062">
  <g id="badge" transform="translate(-53.074 -0.001)">
    <g id="Grupo_1779" data-name="Grupo 1779" transform="translate(53.074 0.001)">
      <path id="Trazado_10785" data-name="Trazado 10785" d="M71.842,9.881a1.86,1.86,0,0,0-.214-2.311,1.162,1.162,0,0,1-.3-1.044A1.859,1.859,0,0,0,70.3,4.447a1.162,1.162,0,0,1-.654-.866,1.86,1.86,0,0,0-1.715-1.564A1.162,1.162,0,0,1,67,1.446,1.86,1.86,0,0,0,64.838.607a1.162,1.162,0,0,1-1.067-.2,1.86,1.86,0,0,0-2.321,0,1.162,1.162,0,0,1-1.067.2,1.86,1.86,0,0,0-2.164.839,1.162,1.162,0,0,1-.923.572A1.86,1.86,0,0,0,55.58,3.581a1.162,1.162,0,0,1-.654.866,1.86,1.86,0,0,0-1.035,2.078,1.162,1.162,0,0,1-.3,1.044,1.86,1.86,0,0,0-.214,2.311,1.162,1.162,0,0,1,.1,1.081,1.86,1.86,0,0,0,.635,2.233,1.162,1.162,0,0,1,.484.972A1.86,1.86,0,0,0,56,16.019a1.161,1.161,0,0,1,.621.405l-1.942,4.688A.84.84,0,0,0,55.7,22.238l2.126-.652a.136.136,0,0,1,.16.066l1.042,1.965a.84.84,0,0,0,1.519-.072l2.024-4.887h.08l2.024,4.887a.84.84,0,0,0,1.519.072l1.042-1.965a.136.136,0,0,1,.16-.066l2.126.652a.841.841,0,0,0,1.023-1.125L68.6,16.424a1.161,1.161,0,0,1,.621-.405,1.86,1.86,0,0,0,1.4-1.852,1.162,1.162,0,0,1,.484-.972,1.86,1.86,0,0,0,.635-2.233,1.163,1.163,0,0,1,.1-1.081ZM59.9,23.274a.135.135,0,0,1-.245.012l-1.042-1.965a.842.842,0,0,0-.989-.41l-2.126.652a.135.135,0,0,1-.165-.182l1.723-4.16a1.859,1.859,0,0,0,1.723.749,1.162,1.162,0,0,1,1.012.392,1.852,1.852,0,0,0,1.9.576Zm9.833-1.71L67.6,20.911a.842.842,0,0,0-.989.41l-1.042,1.965a.135.135,0,0,1-.245-.012l-1.8-4.333a1.858,1.858,0,0,0,1.9-.577,1.161,1.161,0,0,1,1.012-.392,1.858,1.858,0,0,0,1.723-.749l1.723,4.16a.135.135,0,0,1-.165.182ZM71.251,9.5a1.866,1.866,0,0,0-.161,1.737,1.158,1.158,0,0,1-.4,1.39,1.866,1.866,0,0,0-.777,1.561,1.158,1.158,0,0,1-.871,1.153,1.866,1.866,0,0,0-1.152.88l0,0a1.867,1.867,0,0,0-.135.291,1.157,1.157,0,0,1-1.229.761,1.866,1.866,0,0,0-1.626.63,1.158,1.158,0,0,1-1.42.266,1.865,1.865,0,0,0-.513-.181h0a1.865,1.865,0,0,0-.71,0h0a1.868,1.868,0,0,0-.514.181,1.158,1.158,0,0,1-1.42-.266,1.866,1.866,0,0,0-1.626-.63,1.158,1.158,0,0,1-1.229-.761,1.869,1.869,0,0,0-.134-.291l0,0a1.866,1.866,0,0,0-1.152-.88,1.158,1.158,0,0,1-.871-1.153,1.866,1.866,0,0,0-.777-1.561,1.158,1.158,0,0,1-.4-1.39A1.866,1.866,0,0,0,53.97,9.5,1.158,1.158,0,0,1,54.1,8.057a1.866,1.866,0,0,0,.477-1.677,1.158,1.158,0,0,1,.644-1.294,1.866,1.866,0,0,0,1.051-1.392,1.158,1.158,0,0,1,1.068-.973A1.866,1.866,0,0,0,58.826,1.8a1.158,1.158,0,0,1,1.347-.522A1.866,1.866,0,0,0,61.888.96a1.158,1.158,0,0,1,1.445,0,1.866,1.866,0,0,0,1.714.32,1.158,1.158,0,0,1,1.347.522,1.866,1.866,0,0,0,1.483.918,1.158,1.158,0,0,1,1.068.973A1.866,1.866,0,0,0,70,5.086a1.158,1.158,0,0,1,.644,1.293,1.866,1.866,0,0,0,.477,1.677A1.158,1.158,0,0,1,71.251,9.5Z" transform="translate(-53.074 -0.001)" fill="#515a68"/>
      <path id="Trazado_10786" data-name="Trazado 10786" d="M107.676,59.088a.353.353,0,0,0,.393-.307,6.331,6.331,0,0,1,12.566,0,.353.353,0,0,0,.349.31l.043,0a.353.353,0,0,0,.307-.393,7.036,7.036,0,0,0-13.965,0A.352.352,0,0,0,107.676,59.088Z" transform="translate(-104.815 -50.058)" fill="#515a68"/>
      <path id="Trazado_10787" data-name="Trazado 10787" d="M121.025,212.207a.353.353,0,0,0-.393.307,6.331,6.331,0,0,1-12.566,0,.352.352,0,0,0-.7.086,7.036,7.036,0,0,0,13.966,0A.352.352,0,0,0,121.025,212.207Z" transform="translate(-104.813 -202.232)" fill="#515a68"/>
      <path id="Trazado_10788" data-name="Trazado 10788" d="M159.362,97.957a.676.676,0,0,0-.624-.471l-2.763-.1-.948-2.6a.682.682,0,0,0-1.282,0l-.948,2.6-2.763.1a.682.682,0,0,0-.4,1.219l2.177,1.7-.76,2.659a.682.682,0,0,0,1.037.753l2.294-1.544,2.294,1.544a.682.682,0,0,0,1.037-.753l-.76-2.659,2.177-1.7A.676.676,0,0,0,159.362,97.957Zm-2.852,1.907a.679.679,0,0,0-.235.725l.747,2.614-2.255-1.518a.68.68,0,0,0-.762,0l-2.255,1.518.747-2.614a.68.68,0,0,0-.235-.725l-2.14-1.676,2.717-.1a.68.68,0,0,0,.616-.448l.932-2.553.932,2.553a.679.679,0,0,0,.616.448l2.717.1Z" transform="translate(-144.848 -89.907)" fill="#515a68"/>
    </g>
  </g>
</svg>
