<svg xmlns="http://www.w3.org/2000/svg" width="18.923" height="18.143" viewBox="0 0 18.923 18.143">
  <g id="Grupo_1809" data-name="Grupo 1809" transform="translate(0 0)">
    <path id="Trazado_10731" data-name="Trazado 10731" d="M2958.433-1190.809a1.659,1.659,0,0,0-1.654,1.657,1.658,1.658,0,0,0,1.656,1.656,1.658,1.658,0,0,0,1.656-1.656h0a1.647,1.647,0,0,0-.486-1.172A1.668,1.668,0,0,0,2958.433-1190.809Z" transform="translate(-2951.314 1205.639)" fill="#283142"/>
    <path id="Trazado_10732" data-name="Trazado 10732" d="M2968.24-1190.809h0a1.658,1.658,0,0,0-1.654,1.657,1.658,1.658,0,0,0,1.656,1.656,1.658,1.658,0,0,0,1.656-1.656v0A1.658,1.658,0,0,0,2968.24-1190.809Z" transform="translate(-2952.534 1205.639)" fill="#283142"/>
    <path id="Trazado_10733" data-name="Trazado 10733" d="M2969.261-1203.523a.876.876,0,0,0-.675-.318h-12.55l-.64-3.2a.877.877,0,0,0-.858-.7h-3.122a.876.876,0,0,0-.875.876.875.875,0,0,0,.875.875h2.4l.64,3.2,0,.01,1.31,6.541a2.429,2.429,0,0,0,2.373,1.962h7.615a2.432,2.432,0,0,0,2.439-1.968l1.249-6.549A.874.874,0,0,0,2969.261-1203.523Zm-2.782,6.936a.688.688,0,0,1-.7.551h-7.6a.668.668,0,0,1-.686-.553l-1.1-5.5h11.141Z" transform="translate(-2950.539 1207.744)" fill="#283142"/>
  </g>
</svg>
