<svg xmlns="http://www.w3.org/2000/svg" width="15.991" height="15.991" viewBox="0 0 15.991 15.991">
  <path id="Icon_material-close" data-name="Icon material-close" d="M306.068,413.651l-.652-.652a.72.72,0,0,0-1.018,0l-5.606,5.606a.72.72,0,0,1-1.018,0L292.169,413a.72.72,0,0,0-1.018,0l-.652.652a.72.72,0,0,0,0,1.018l5.606,5.606a.72.72,0,0,1,0,1.018L290.5,426.9a.72.72,0,0,0,0,1.018l.652.652a.72.72,0,0,0,1.018,0l5.606-5.606a.72.72,0,0,1,1.018,0l5.606,5.606a.72.72,0,0,0,1.018,0l.652-.652a.72.72,0,0,0,0-1.018l-5.606-5.606a.72.72,0,0,1,0-1.018l5.606-5.606A.72.72,0,0,0,306.068,413.651Z" transform="translate(-290.288 -412.788)" fill="#fff"/>
</svg>
