<svg xmlns="http://www.w3.org/2000/svg" width="32.239" height="32.235" viewBox="0 0 32.239 32.235">
  <path id="Icon_awesome-whatsapp" data-name="Icon awesome-whatsapp" d="M26.9,6.847A15.681,15.681,0,0,0,2.224,25.763L0,33.884,8.311,31.7A15.628,15.628,0,0,0,15.8,33.608h.007A15.826,15.826,0,0,0,31.634,17.933,15.737,15.737,0,0,0,26.9,6.847ZM15.81,30.967a13.006,13.006,0,0,1-6.637-1.815L8.7,28.87,3.771,30.162l1.313-4.809-.311-.494a13.054,13.054,0,1,1,24.212-6.927A13.175,13.175,0,0,1,15.81,30.967Zm7.146-9.758c-.388-.2-2.316-1.144-2.676-1.271s-.621-.2-.883.2-1.01,1.271-1.243,1.539-.459.3-.847.1a10.662,10.662,0,0,1-5.331-4.66c-.4-.692.4-.643,1.151-2.14a.726.726,0,0,0-.035-.685c-.1-.2-.883-2.125-1.207-2.909-.318-.763-.643-.657-.883-.671s-.487-.014-.748-.014a1.451,1.451,0,0,0-1.045.487,4.4,4.4,0,0,0-1.37,3.269,7.673,7.673,0,0,0,1.6,4.053c.2.261,2.761,4.215,6.694,5.917,2.486,1.073,3.46,1.165,4.7.981a4.012,4.012,0,0,0,2.641-1.864,3.276,3.276,0,0,0,.226-1.864C23.605,21.5,23.344,21.4,22.956,21.209Z" transform="translate(0.356 -2)" fill="#515a68" stroke="#fff" stroke-width="0.5"/>
</svg>
