<svg xmlns="http://www.w3.org/2000/svg" width="15.331" height="15.331" viewBox="0 0 15.331 15.331">
  <path id="Icon_zocial-instagram" data-name="Icon zocial-instagram" d="M13.97,15.285a1.822,1.822,0,0,0,.839-.476,1.687,1.687,0,0,0,.464-.8c.054-.213.057-.413.057-6.33,0-6.647.012-6.282-.162-6.656A1.788,1.788,0,0,0,14.3.157C13.91-.014,14.287,0,7.589,0L1.418.01,1.226.076a1.817,1.817,0,0,0-1.15,1.15L.01,1.418,0,7.589C0,14.443-.02,13.931.2,14.374a1.78,1.78,0,0,0,.758.758c.437.216-.06.2,6.722.2C12.864,15.327,13.817,15.321,13.97,15.285ZM2.029,13.46c-.246-.174-.252-.192-.261-1.333-.009-1.111,0-1.168.18-1.345.165-.162.243-.171,1.327-.168l.989,0,.135.072a.737.737,0,0,1,.222.21l.09.132,0,.992c0,.542-.009,1.036-.024,1.093a.56.56,0,0,1-.306.377l-.15.075-1.039-.009L2.158,13.55Zm5.039-2.909A2.973,2.973,0,0,1,4.773,8.245a3.659,3.659,0,0,1-.033-.974,3.017,3.017,0,0,1,1.537-2.2,3.215,3.215,0,0,1,.791-.294c.057-.006.177-.024.267-.039a2.959,2.959,0,0,1,2.672,1.144,2.931,2.931,0,0,1-.057,3.64,2.987,2.987,0,0,1-1.977,1.075A3.126,3.126,0,0,1,7.068,10.552Zm5.215-1.944a4.754,4.754,0,0,0-.4-3.041,4.407,4.407,0,0,0-.9-1.231,4.672,4.672,0,0,0-4.077-1.33A4.746,4.746,0,0,0,3.1,6.481a4.652,4.652,0,0,0-.123,1.678,3.3,3.3,0,0,0,.123.647c.009.015.006.027-.009.03-.114.012-1.279.009-1.3-.006S1.766,7.49,1.769,5.486l.009-3.328.09-.129a.748.748,0,0,1,.225-.2l.135-.069,5.47.009,5.467.006.123.081a.788.788,0,0,1,.192.195l.072.114.009,3.31c0,1.821,0,3.322-.006,3.34a3.224,3.224,0,0,1-.668.03h-.656Z" transform="translate(15.331 15.331) rotate(180)" fill="#fff"/>
</svg>
