<svg xmlns="http://www.w3.org/2000/svg" width="24.607" height="24.607" viewBox="0 0 24.607 24.607">
  <path id="Icon_zocial-instagram" data-name="Icon zocial-instagram" d="M22.422,24.533a2.925,2.925,0,0,0,1.346-.764,2.707,2.707,0,0,0,.745-1.284c.087-.341.091-.664.091-10.16,0-10.669.019-10.083-.26-10.684a2.87,2.87,0,0,0-1.4-1.39c-.62-.274-.014-.26-10.765-.245l-9.9.01L1.969.122A2.916,2.916,0,0,0,.122,1.968l-.106.308-.01,9.9c-.014,11-.038,10.179.313,10.89a2.856,2.856,0,0,0,1.216,1.216c.7.346-.1.322,10.789.317C20.648,24.6,22.177,24.59,22.422,24.533ZM3.257,21.6c-.394-.279-.4-.308-.418-2.14-.014-1.784,0-1.875.288-2.159.264-.26.389-.274,2.13-.269l1.587,0,.216.115a1.182,1.182,0,0,1,.356.337l.144.212,0,1.591c0,.87-.014,1.664-.038,1.755a.9.9,0,0,1-.49.606l-.24.12-1.668-.014-1.664-.014Zm8.087-4.669a4.772,4.772,0,0,1-3.683-3.7,5.874,5.874,0,0,1-.053-1.563,4.843,4.843,0,0,1,2.467-3.539,5.159,5.159,0,0,1,1.269-.471c.091-.01.284-.038.428-.063a4.75,4.75,0,0,1,4.289,1.837,4.7,4.7,0,0,1-.091,5.842A4.794,4.794,0,0,1,12.8,17,5.018,5.018,0,0,1,11.344,16.936Zm8.371-3.12a7.63,7.63,0,0,0-.635-4.88,7.073,7.073,0,0,0-1.438-1.976A7.5,7.5,0,0,0,11.1,4.824,7.617,7.617,0,0,0,4.974,10.4a7.467,7.467,0,0,0-.2,2.693,5.294,5.294,0,0,0,.2,1.039c.014.024.01.043-.014.048-.183.019-2.053.014-2.087-.01s-.038-2.149-.034-5.366l.014-5.342L3,3.257a1.2,1.2,0,0,1,.361-.317l.216-.111,8.78.014,8.775.01.2.13a1.265,1.265,0,0,1,.308.313l.115.183.014,5.313c0,2.923,0,5.332-.01,5.361a5.174,5.174,0,0,1-1.072.048H19.629Z" transform="translate(24.607 24.607) rotate(180)"/>
</svg>
