<svg xmlns="http://www.w3.org/2000/svg" width="16.087" height="18.168" viewBox="0 0 16.087 18.168">
  <g id="office" transform="translate(-6.009 -2)">
    <path id="Trazado_10813" data-name="Trazado 10813" d="M60.27,41.164a.26.26,0,0,1-.26-.26V40.15a.26.26,0,1,1,.519,0V40.9A.26.26,0,0,1,60.27,41.164Z" transform="translate(-39.985 -28.056)" fill="#515a68"/>
    <path id="Trazado_10814" data-name="Trazado 10814" d="M24.713,20.168H12.25a.26.26,0,0,1-.26-.26V4.076a.26.26,0,0,1,.222-.257L24.675,2a.26.26,0,0,1,.3.257v5.43a.26.26,0,1,1-.519,0V2.559L12.509,4.3V19.649H24.453V14.665a.26.26,0,1,1,.519,0v5.243A.26.26,0,0,1,24.713,20.168Z" transform="translate(-4.429 0)" fill="#515a68"/>
    <path id="Trazado_10815" data-name="Trazado 10815" d="M60.27,31.21a.26.26,0,0,1-.26-.26V30.18a.26.26,0,1,1,.519,0v.771A.26.26,0,0,1,60.27,31.21Z" transform="translate(-39.985 -20.674)" fill="#515a68"/>
    <path id="Trazado_10816" data-name="Trazado 10816" d="M21.836,70.519H6.269a.26.26,0,1,1,0-.519H21.836a.26.26,0,1,1,0,.519Z" transform="translate(0 -50.351)" fill="#515a68"/>
    <path id="Trazado_10817" data-name="Trazado 10817" d="M48.493,16.814H46.939a.26.26,0,0,1-.26-.26v-1.3a.26.26,0,0,1,.26-.26h1.555a.26.26,0,0,1,.26.26v1.3A.26.26,0,0,1,48.493,16.814ZM47.2,16.3h1.036v-.776H47.2Z" transform="translate(-30.114 -9.626)" fill="#515a68"/>
    <path id="Trazado_10818" data-name="Trazado 10818" d="M34.826,16.814H33.273a.26.26,0,0,1-.26-.26v-1.3a.26.26,0,0,1,.26-.26h1.554a.26.26,0,0,1,.26.26v1.3A.26.26,0,0,1,34.826,16.814Zm-1.3-.519h1.036v-.776H33.532Z" transform="translate(-19.995 -9.626)" fill="#515a68"/>
    <path id="Trazado_10819" data-name="Trazado 10819" d="M21.161,16.814H19.607a.26.26,0,0,1-.26-.26v-1.3a.26.26,0,0,1,.26-.26h1.555a.26.26,0,0,1,.26.26v1.3A.26.26,0,0,1,21.161,16.814Zm-1.3-.519H20.9v-.776H19.866Z" transform="translate(-9.876 -9.626)" fill="#515a68"/>
    <path id="Trazado_10820" data-name="Trazado 10820" d="M48.493,28.317H46.939a.26.26,0,0,1-.26-.26v-1.3a.26.26,0,0,1,.26-.26h1.555a.26.26,0,0,1,.26.26v1.3A.26.26,0,0,1,48.493,28.317ZM47.2,27.8h1.036v-.779H47.2Z" transform="translate(-30.114 -18.142)" fill="#515a68"/>
    <path id="Trazado_10821" data-name="Trazado 10821" d="M34.826,28.317H33.273a.26.26,0,0,1-.26-.26v-1.3a.26.26,0,0,1,.26-.26h1.554a.26.26,0,0,1,.26.26v1.3A.26.26,0,0,1,34.826,28.317Zm-1.3-.519h1.036v-.779H33.532Z" transform="translate(-19.995 -18.142)" fill="#515a68"/>
    <path id="Trazado_10822" data-name="Trazado 10822" d="M21.161,28.317H19.607a.26.26,0,0,1-.26-.26v-1.3a.26.26,0,0,1,.26-.26h1.555a.26.26,0,0,1,.26.26v1.3A.26.26,0,0,1,21.161,28.317Zm-1.3-.519H20.9v-.779H19.866Z" transform="translate(-9.876 -18.142)" fill="#515a68"/>
    <path id="Trazado_10823" data-name="Trazado 10823" d="M48.493,39.823H46.939a.26.26,0,0,1-.26-.26v-1.3a.26.26,0,0,1,.26-.26h1.555a.26.26,0,0,1,.26.26v1.3A.26.26,0,0,1,48.493,39.823ZM47.2,39.3h1.036v-.776H47.2Z" transform="translate(-30.114 -26.663)" fill="#515a68"/>
    <path id="Trazado_10824" data-name="Trazado 10824" d="M34.826,39.823H33.273a.26.26,0,0,1-.26-.26v-1.3a.26.26,0,0,1,.26-.26h1.554a.26.26,0,0,1,.26.26v1.3A.26.26,0,0,1,34.826,39.823Zm-1.3-.519h1.036v-.776H33.532Z" transform="translate(-19.995 -26.663)" fill="#515a68"/>
    <path id="Trazado_10825" data-name="Trazado 10825" d="M21.161,39.823H19.607a.26.26,0,0,1-.26-.26v-1.3a.26.26,0,0,1,.26-.26h1.555a.26.26,0,0,1,.26.26v1.3A.26.26,0,0,1,21.161,39.823Zm-1.3-.519H20.9v-.776H19.866Z" transform="translate(-9.876 -26.663)" fill="#515a68"/>
    <path id="Trazado_10826" data-name="Trazado 10826" d="M32.42,56.455H28.277a.26.26,0,0,1-.26-.26V51.269a.26.26,0,0,1,.26-.26H32.42a.26.26,0,0,1,.26.26V56.2A.26.26,0,0,1,32.42,56.455Zm-3.884-.519h3.625V51.528H28.536Z" transform="translate(-16.296 -36.289)" fill="#515a68"/>
  </g>
</svg>
