<svg xmlns="http://www.w3.org/2000/svg" width="22.22" height="13.485" viewBox="0 0 22.22 13.485">
  <path id="tent_1_" data-name="tent (1)" d="M14.512,114.262a.306.306,0,0,0-.021-.061,3.733,3.733,0,0,0-3.372-2.143h-.006a3.757,3.757,0,0,0-1.6.359l-.28.133a3.727,3.727,0,0,0-1.848,1.939.307.307,0,0,0-.02.068L6.7,118.642A.307.307,0,0,0,7,119h8.237a.308.308,0,0,0,.293-.4Zm-3.087,4.122v-4.523a.307.307,0,1,0-.615,0v4.523H7.362l.606-3.69a3.113,3.113,0,0,1,1.53-1.587l.28-.133a2.866,2.866,0,0,1,2.677,0,3.127,3.127,0,0,1,1.466,1.458l.927,3.949H11.425Zm10.747-1.4-3.234-5.143a13.006,13.006,0,0,0-2.533-3.207,7.738,7.738,0,0,0-10.577,0,13,13,0,0,0-2.53,3.2L.047,116.983a.307.307,0,1,0,.52.328l.97-1.535a25.744,25.744,0,0,0-1.018,3.9.307.307,0,0,0,.3.356H21.414a.307.307,0,0,0,.3-.356,25.712,25.712,0,0,0-1-3.856l.939,1.494a.307.307,0,1,0,.521-.327ZM3.158,113.419q.311-.649.645-1.23l.016-.025a.3.3,0,0,0,.02-.037A10.445,10.445,0,0,1,7.767,108a7.676,7.676,0,0,0-.619.67,14.978,14.978,0,0,0-2.367,4.517,34.551,34.551,0,0,0-1.491,6.23h-2.1A26.46,26.46,0,0,1,3.158,113.419Zm.753,5.994c.293-2.021,2.036-12.255,7.206-12.255a4.511,4.511,0,0,1,3.492,1.9,14.359,14.359,0,0,1,2.262,4.325,33.843,33.843,0,0,1,1.453,6.034Zm15.16-6.006a26.489,26.489,0,0,1,1.973,6.006h-2.1a34.551,34.551,0,0,0-1.491-6.23,14.977,14.977,0,0,0-2.367-4.517,7.671,7.671,0,0,0-.619-.67,10.444,10.444,0,0,1,3.927,4.128.313.313,0,0,0,.02.038l.019.03Q18.764,112.768,19.072,113.408Z" transform="translate(0 -106.544)" fill="#515a68"/>
</svg>
