<svg xmlns="http://www.w3.org/2000/svg" width="23.569" height="23.568" viewBox="0 0 23.569 23.568">
  <path id="Trazado_10743" data-name="Trazado 10743" d="M3064.574-1317.456a11.8,11.8,0,0,0-11.785,11.784,11.787,11.787,0,0,0,2.674,7.466l.036.051a11.846,11.846,0,0,0,4.449,3.319l.059.027c.138.058.278.112.418.165l.166.062c.121.043.243.085.363.123.079.025.157.051.236.074.108.033.217.063.325.092s.194.051.29.074l.045.01c.084.02.167.04.25.057.109.023.221.044.331.064l.27.049c.114.018.228.033.374.052l.242.031c.141.015.284.025.425.036l.2.015c.208.012.421.018.634.018s.423-.006.636-.017l.2-.015c.142-.01.285-.021.43-.036l.253-.033c.12-.015.239-.031.358-.05l.268-.047c.111-.021.222-.042.334-.066.091-.019.179-.04.294-.068.1-.023.192-.047.288-.073s.218-.06.328-.093l.233-.073c.123-.039.244-.08.367-.124l.163-.061c.14-.053.279-.106.419-.166l.056-.025a11.822,11.822,0,0,0,4.45-3.322l.028-.039a11.8,11.8,0,0,0,2.681-7.477A11.8,11.8,0,0,0,3064.574-1317.456Zm1.65,12.172-.053.025a3.913,3.913,0,0,1-3.195,0l-.054-.025a3.726,3.726,0,0,1-.422-.236,3.8,3.8,0,0,1-1.739-3.194,3.816,3.816,0,0,1,3.812-3.812,3.816,3.816,0,0,1,3.812,3.812,3.8,3.8,0,0,1-1.738,3.193A3.743,3.743,0,0,1,3066.224-1305.285Zm-4.27,1.193.124.069c.121.064.247.125.37.179.083.036.167.068.3.115l.058.022a5.219,5.219,0,0,0,3.576-.014l.046-.016c.092-.034.183-.068.27-.105.128-.055.252-.116.378-.183l.119-.067a8.11,8.11,0,0,1,5.042,5.26,10.272,10.272,0,0,1-3.2,2.418l-.085.041c-.109.052-.218.1-.328.147l-.093.039c-.116.049-.234.1-.358.141-.048.019-.1.036-.148.054-.106.038-.213.074-.316.108l-.205.062c-.1.029-.191.056-.288.082s-.164.042-.284.07c-.074.018-.147.035-.221.051-.1.02-.19.037-.286.055l-.047.009-.185.033c-.1.016-.211.03-.325.044l-.206.027c-.116.012-.232.021-.374.03l-.167.013a10.4,10.4,0,0,1-1.088,0l-.172-.013c-.124-.007-.248-.017-.367-.03l-.211-.027c-.11-.013-.218-.028-.326-.044-.055-.009-.111-.019-.182-.033l-.051-.01c-.1-.017-.191-.034-.284-.054-.078-.016-.155-.034-.231-.053l-.059-.014c-.072-.017-.144-.034-.215-.054-.094-.025-.187-.052-.279-.079l-.009,0-.2-.061c-.108-.035-.215-.071-.32-.109l-.152-.055c-.12-.045-.238-.091-.354-.139l-.092-.039c-.135-.058-.268-.118-.416-.189a10.268,10.268,0,0,1-3.2-2.418A8.106,8.106,0,0,1,3061.954-1304.091Zm7.936-4.624a5.323,5.323,0,0,0-5.316-5.317,5.323,5.323,0,0,0-5.318,5.317,5.353,5.353,0,0,0,1.362,3.542,9.411,9.411,0,0,0-4.782,4.9,10.206,10.206,0,0,1-1.541-5.4,10.29,10.29,0,0,1,10.279-10.278,10.29,10.29,0,0,1,10.278,10.278,10.2,10.2,0,0,1-1.542,5.4,9.406,9.406,0,0,0-4.782-4.9A5.356,5.356,0,0,0,3069.891-1308.715Z" transform="translate(-3052.789 1317.456)" fill="#fff"/>
</svg>
