<svg xmlns="http://www.w3.org/2000/svg" width="14.951" height="14.951" viewBox="0 0 14.951 14.951">
  <path id="Icon_awesome-whatsapp" data-name="Icon awesome-whatsapp" d="M12.712,4.423A7.411,7.411,0,0,0,1.051,13.363L0,17.2,3.928,16.17a7.386,7.386,0,0,0,3.541.9h0a7.48,7.48,0,0,0,7.479-7.409,7.438,7.438,0,0,0-2.239-5.24Zm-5.24,11.4a6.147,6.147,0,0,1-3.137-.858l-.224-.133-2.329.611L2.4,13.17l-.147-.234A6.17,6.17,0,1,1,13.7,9.662a6.227,6.227,0,0,1-6.227,6.161Zm3.377-4.612c-.184-.093-1.095-.541-1.265-.6s-.294-.093-.417.093-.477.6-.587.728-.217.14-.4.047a5.039,5.039,0,0,1-2.52-2.2c-.19-.327.19-.3.544-1.011a.343.343,0,0,0-.017-.324c-.047-.093-.417-1-.571-1.375s-.3-.31-.417-.317-.23-.007-.354-.007a.686.686,0,0,0-.494.23A2.08,2.08,0,0,0,3.7,8.017a3.627,3.627,0,0,0,.754,1.916,8.272,8.272,0,0,0,3.164,2.8,3.623,3.623,0,0,0,2.223.464,1.9,1.9,0,0,0,1.248-.881,1.548,1.548,0,0,0,.107-.881C11.157,11.348,11.033,11.3,10.85,11.211Z" transform="translate(0 -2.25)" fill="#ffc937"/>
</svg>
