<svg xmlns="http://www.w3.org/2000/svg" width="22.22" height="16.665" viewBox="0 0 22.22 16.665">
  <g id="boots" transform="translate(0 -64)">
    <g id="Grupo_1778" data-name="Grupo 1778" transform="translate(0 64)">
      <path id="Trazado_10758" data-name="Trazado 10758" d="M22.045,75.673a.457.457,0,0,0-.288-.088v-.012a3.218,3.218,0,0,0-.955-2.3,3.283,3.283,0,0,0-2.3-.943l-1.372.007c-2.532-.006-5.149-2.124-5.281-2.231a6.925,6.925,0,0,1-2.59-5.613A.464.464,0,0,0,8.8,64,12.315,12.315,0,0,0,.114,67.862a.463.463,0,0,0-.114.3v4.187A24.951,24.951,0,0,0,.452,76.49a18.821,18.821,0,0,0-.412,2.69A1.378,1.378,0,0,0,.4,80.218a1.4,1.4,0,0,0,1.023.447H5.092a1.39,1.39,0,0,0,1.389-1.38,11.279,11.279,0,0,1,3.7.757v.16a.463.463,0,0,0,.463.463c.635,0,1.247-.015,1.844-.039H12.5l.012,0c.636-.026,1.242-.065,1.829-.111l.01,0c.009,0,.016,0,.025-.005.641-.051,1.248-.113,1.823-.181h0l.013,0a42.9,42.9,0,0,0,4.586-.789,1.839,1.839,0,0,0,1.419-1.8v-1.7A.463.463,0,0,0,22.045,75.673ZM.926,68.349a11.655,11.655,0,0,1,7.4-3.413,8.6,8.6,0,0,0,.465,2.471l-1.322.412-.088-.264a.463.463,0,0,0-.878.293l.463,1.389a.463.463,0,0,0,.878-.293L7.763,68.7l1.387-.433a7.1,7.1,0,0,0,.867,1.344L8.8,70.761l-.144-.144a.463.463,0,0,0-.655.655l.926.926a.463.463,0,0,0,.655-.655l-.127-.127,1.189-1.126a6.842,6.842,0,0,0,.635.552c.086.07.374.3.8.586l-.555,1.482-.271-.09a.463.463,0,0,0-.293.878l1.389.463a.463.463,0,0,0,.293-.878l-.239-.08.477-1.272a8.918,8.918,0,0,0,4.247,1.335l1.375-.007h.012a2.315,2.315,0,0,1,2.315,2.314v.2A44.292,44.292,0,0,1,12.5,76.962a12.986,12.986,0,0,1-3.937-.528,8.682,8.682,0,0,0-2.543-.4H1.311a23.45,23.45,0,0,1-.385-3.683Zm20.368,9.388a.916.916,0,0,1-.705.9l-.221.049V78.35a.463.463,0,1,0-.926,0v.532q-.428.086-.926.173v-.242a.463.463,0,0,0-.926,0v.394c-.3.046-.6.091-.926.133v-.233a.463.463,0,1,0-.926,0v.346c-.3.033-.611.062-.926.091v-.268a.463.463,0,0,0-.926,0v.344q-.454.032-.926.057v-.4a.463.463,0,0,0-.926,0v.435c-.307.009-.609.022-.926.026a.464.464,0,0,0-.256-.412,11.625,11.625,0,0,0-4.836-.975.463.463,0,0,0-.463.463v.463a.463.463,0,0,1-.463.463H4.629v-.463a.463.463,0,1,0-.926,0v.463H2.777v-.463a.463.463,0,0,0-.926,0v.463H1.428a.464.464,0,0,1-.344-.151.445.445,0,0,1-.12-.339A18.352,18.352,0,0,1,1.3,76.962H6.018a7.809,7.809,0,0,1,2.3.366,13.8,13.8,0,0,0,4.182.56,45.32,45.32,0,0,0,8.56-1.212h0l.232-.055Z" transform="translate(0 -64)" fill="#515a68"/>
    </g>
  </g>
</svg>
