<svg id="Grupo_1809" data-name="Grupo 1809" xmlns="http://www.w3.org/2000/svg" width="24.304" height="23.302" viewBox="0 0 24.304 23.302">
  <path id="Trazado_10731" data-name="Trazado 10731" d="M2958.9-1190.809a2.131,2.131,0,0,0-2.125,2.128,2.13,2.13,0,0,0,2.127,2.127,2.13,2.13,0,0,0,2.127-2.127h0a2.116,2.116,0,0,0-.624-1.5A2.14,2.14,0,0,0,2958.9-1190.809Z" transform="translate(-2949.76 1209.856)" fill="#fff"/>
  <path id="Trazado_10732" data-name="Trazado 10732" d="M2968.711-1190.809h0a2.13,2.13,0,0,0-2.124,2.128,2.129,2.129,0,0,0,2.127,2.127,2.129,2.129,0,0,0,2.126-2.127v0A2.13,2.13,0,0,0,2968.711-1190.809Z" transform="translate(-2948.538 1209.856)" fill="#fff"/>
  <path id="Trazado_10733" data-name="Trazado 10733" d="M2974.584-1202.323a1.125,1.125,0,0,0-.867-.408H2957.6l-.822-4.109a1.126,1.126,0,0,0-1.1-.9h-4.01a1.125,1.125,0,0,0-1.125,1.125,1.124,1.124,0,0,0,1.125,1.125h3.087l.823,4.1,0,.013,1.683,8.4a3.12,3.12,0,0,0,3.048,2.52h9.781a3.124,3.124,0,0,0,3.133-2.527l1.6-8.411A1.125,1.125,0,0,0,2974.584-1202.323Zm-3.573,8.909a.883.883,0,0,1-.9.708h-9.764a.858.858,0,0,1-.881-.71l-1.415-7.065h14.309Z" transform="translate(-2950.539 1207.744)" fill="#fff"/>
</svg>
