<svg xmlns="http://www.w3.org/2000/svg" width="30.141" height="30.141" viewBox="0 0 30.141 30.141">
  <path id="Icon_zocial-instagram" data-name="Icon zocial-instagram" d="M27.465,30.05a3.583,3.583,0,0,0,1.649-.936,3.316,3.316,0,0,0,.913-1.572c.106-.418.112-.813.112-12.444.006-13.069.024-12.35-.318-13.086a3.515,3.515,0,0,0-1.714-1.7c-.76-.336-.018-.318-13.186-.3L2.788.02l-.377.13A3.572,3.572,0,0,0,.15,2.411l-.13.377L.008,14.92C-.009,28.395-.039,27.388.391,28.259a3.5,3.5,0,0,0,1.49,1.49c.86.424-.118.395,13.216.389C25.291,30.132,27.164,30.12,27.465,30.05ZM3.99,26.463c-.483-.342-.495-.377-.512-2.621-.018-2.185-.006-2.3.353-2.644.324-.318.477-.336,2.609-.33l1.943.006.265.141a1.448,1.448,0,0,1,.436.412l.177.259.006,1.949c.006,1.066-.018,2.038-.047,2.15a1.1,1.1,0,0,1-.6.742l-.294.147-2.044-.018L4.243,26.64ZM13.9,20.744A5.845,5.845,0,0,1,9.384,16.21,7.194,7.194,0,0,1,9.319,14.3a5.932,5.932,0,0,1,3.021-4.335A6.32,6.32,0,0,1,13.9,9.384c.112-.012.347-.047.524-.077a5.818,5.818,0,0,1,5.253,2.25,5.762,5.762,0,0,1-.112,7.156,5.872,5.872,0,0,1-3.887,2.114A6.146,6.146,0,0,1,13.9,20.744Zm10.253-3.822a9.346,9.346,0,0,0-.777-5.978,8.664,8.664,0,0,0-1.761-2.421A9.185,9.185,0,0,0,13.6,5.909a9.33,9.33,0,0,0-7.5,6.832,9.146,9.146,0,0,0-.241,3.3,6.484,6.484,0,0,0,.241,1.272c.018.029.012.053-.018.059-.224.024-2.515.018-2.556-.012s-.047-2.633-.041-6.573l.018-6.543.177-.253A1.471,1.471,0,0,1,4.113,3.6l.265-.135,10.754.018,10.748.012.241.159a1.549,1.549,0,0,1,.377.383l.141.224.018,6.508c.006,3.581.006,6.531-.012,6.567a6.337,6.337,0,0,1-1.313.059h-1.29Z" transform="translate(30.141 30.141) rotate(180)" fill="#697883"/>
</svg>
