<svg xmlns="http://www.w3.org/2000/svg" width="31.671" height="31.728" viewBox="0 0 31.671 31.728">
  <path id="Icon_feather-phone-call" data-name="Icon feather-phone-call" d="M21.48,7.162a7.077,7.077,0,0,1,5.591,5.591M21.48,1.5A12.738,12.738,0,0,1,32.733,12.738M31.317,24.033v4.246a2.831,2.831,0,0,1-3.086,2.831,28.01,28.01,0,0,1-12.215-4.345,27.6,27.6,0,0,1-8.492-8.492A28.011,28.011,0,0,1,3.179,6,2.831,2.831,0,0,1,6,2.915h4.246A2.831,2.831,0,0,1,13.073,5.35a18.173,18.173,0,0,0,.991,3.977,2.831,2.831,0,0,1-.637,2.986l-1.8,1.8A22.646,22.646,0,0,0,20.122,22.6l1.8-1.8a2.831,2.831,0,0,1,2.986-.637,18.174,18.174,0,0,0,3.977.991A2.831,2.831,0,0,1,31.317,24.033Z" transform="translate(-2.167 -0.396)" fill="none" stroke="#515a68" stroke-linecap="round" stroke-linejoin="round" stroke-width="2"/>
</svg>
