<svg xmlns="http://www.w3.org/2000/svg" width="23.225" height="17.831" viewBox="0 0 23.225 17.831">
  <path id="Icon_map-clothing-store" data-name="Icon map-clothing-store" d="M24.008,9.326a.532.532,0,0,1-.094.426l-2.668,3.97a.593.593,0,0,1-.481.238,1.381,1.381,0,0,1-.242-.025l-2.139-.525v9.406a.476.476,0,0,1-.5.5H7.494a.476.476,0,0,1-.5-.5V13.411l-1.921.53a.453.453,0,0,1-.54-.213L1.89,9.767a.5.5,0,0,1-.069-.416.483.483,0,0,1,.272-.317l5.4-2.554H9.969a.473.473,0,0,1,.5.5c0,1.02,1.431,1.743,2.45,1.743s2.5-.718,2.5-1.743a.476.476,0,0,1,.5-.5h2.475l5.346,2.5a.533.533,0,0,1,.277.342Z" transform="translate(-1.3 -5.98)" fill="none" stroke="#515a68" stroke-width="1"/>
</svg>
