<svg id="Componente_1_1" data-name="Componente 1 – 1" xmlns="http://www.w3.org/2000/svg" width="314.376" height="151.884" viewBox="0 0 314.376 151.884">
  <text id="Rerda_S.A._-_Sastrería_Militar" data-name="Rerda S.A. - Sastrería Militar" transform="translate(45 147.884)" fill="#515a68" font-size="16" font-family="Montserrat-Medium, Montserrat" font-weight="500"><tspan x="0" y="0">Rerda S.A. - Sastrería Militar</tspan></text>
  <g id="Grupo_1927" data-name="Grupo 1927">
    <path id="Trazado_309" data-name="Trazado 309" d="M1306.249,59.994H1084.6a46.468,46.468,0,0,0,0,92.936h221.646a46.468,46.468,0,0,0,0-92.936Zm0,89.8H1084.6a43.337,43.337,0,0,1,0-86.675h221.646a43.336,43.336,0,0,1,0,86.673Z" transform="translate(-1038.238 -59.994)" fill="#ffc937"/>
    <g id="Grupo_567" data-name="Grupo 567" transform="translate(83.975 97.681)">
      <path id="Trazado_179" data-name="Trazado 179" d="M1279.39,340.57a5.241,5.241,0,0,1,1.544.985l-.845.944a4.8,4.8,0,0,0-1.243-.741,3.6,3.6,0,0,0-1.308-.236,2.423,2.423,0,0,0-1.446.407,1.372,1.372,0,0,0-.569,1.189,1.61,1.61,0,0,0,.2.822,1.744,1.744,0,0,0,.723.611,9.328,9.328,0,0,0,1.535.589,10,10,0,0,1,1.755.7,3.048,3.048,0,0,1,1.129,1.035,2.982,2.982,0,0,1,.431,1.671,3.128,3.128,0,0,1-.481,1.726,3.22,3.22,0,0,1-1.382,1.171,5,5,0,0,1-2.136.422,5.205,5.205,0,0,1-3.8-1.449l.845-.944a5.534,5.534,0,0,0,1.381.838,4.088,4.088,0,0,0,1.56.286,2.791,2.791,0,0,0,1.722-.512,1.753,1.753,0,0,0,.683-1.491,1.82,1.82,0,0,0-.214-.919,1.885,1.885,0,0,0-.723-.66,7.411,7.411,0,0,0-1.486-.589,6.533,6.533,0,0,1-2.518-1.253,2.567,2.567,0,0,1-.8-1.987,2.665,2.665,0,0,1,.447-1.514,2.98,2.98,0,0,1,1.25-1.044,4.282,4.282,0,0,1,1.828-.375A5.164,5.164,0,0,1,1279.39,340.57Z" transform="translate(-1273.49 -337.668)" fill="#0a090a"/>
      <path id="Trazado_180" data-name="Trazado 180" d="M1305.8,352.021l-.845-2.819h-4.24l-.845,2.819h-1.56L1301.9,340.8h1.949l3.575,11.219Zm-4.711-4.072h3.494l-1.738-5.862Z" transform="translate(-1289.447 -338.022)" fill="#0a090a"/>
      <path id="Trazado_181" data-name="Trazado 181" d="M1332.235,340.571a5.242,5.242,0,0,1,1.543.985l-.845.944a4.8,4.8,0,0,0-1.242-.741,3.6,3.6,0,0,0-1.308-.236,2.425,2.425,0,0,0-1.446.407,1.371,1.371,0,0,0-.569,1.189,1.608,1.608,0,0,0,.195.822,1.748,1.748,0,0,0,.723.611,9.32,9.32,0,0,0,1.535.589,10,10,0,0,1,1.755.7,3.047,3.047,0,0,1,1.129,1.035,2.982,2.982,0,0,1,.431,1.671,3.126,3.126,0,0,1-.481,1.726,3.214,3.214,0,0,1-1.381,1.172,5,5,0,0,1-2.136.423,5.2,5.2,0,0,1-3.8-1.449l.845-.944a5.535,5.535,0,0,0,1.38.838,4.084,4.084,0,0,0,1.56.285,2.788,2.788,0,0,0,1.722-.512,1.752,1.752,0,0,0,.683-1.491,1.826,1.826,0,0,0-.214-.92,1.885,1.885,0,0,0-.723-.66,7.382,7.382,0,0,0-1.486-.589,6.537,6.537,0,0,1-2.518-1.253,2.565,2.565,0,0,1-.8-1.987,2.667,2.667,0,0,1,.447-1.514,2.978,2.978,0,0,1,1.25-1.044,4.283,4.283,0,0,1,1.828-.375A5.175,5.175,0,0,1,1332.235,340.571Z" transform="translate(-1307.473 -337.668)" fill="#0a090a"/>
      <path id="Trazado_182" data-name="Trazado 182" d="M1358.777,340.8l-.16,1.319h-3.1v9.9h-1.543v-9.9h-3.185V340.8Z" transform="translate(-1323.194 -338.022)" fill="#0a090a"/>
      <path id="Trazado_183" data-name="Trazado 183" d="M1382.558,347.243h-1.739V352h-1.543V340.78h2.941a5.3,5.3,0,0,1,3.177.8,2.764,2.764,0,0,1,1.081,2.377,2.9,2.9,0,0,1-.6,1.905,3.665,3.665,0,0,1-1.82,1.107l3.021,5.032h-1.836Zm-.18-1.189a2.889,2.889,0,0,0,1.836-.5,1.937,1.937,0,0,0,.618-1.606,1.751,1.751,0,0,0-.625-1.506,3.4,3.4,0,0,0-2.006-.464h-1.381v4.072Z" transform="translate(-1341.515 -338)" fill="#0a090a"/>
      <path id="Trazado_184" data-name="Trazado 184" d="M1413.96,340.8l-.179,1.238h-4.338v3.665h3.77v1.237h-3.77v3.843h4.646v1.238H1407.9V340.8Z" transform="translate(-1359.922 -338.022)" fill="#0a090a"/>
      <path id="Trazado_185" data-name="Trazado 185" d="M1436.627,347.243h-1.738V352h-1.544V340.78h2.941a5.3,5.3,0,0,1,3.177.8,2.767,2.767,0,0,1,1.08,2.377,2.906,2.906,0,0,1-.6,1.905,3.672,3.672,0,0,1-1.82,1.107l3.021,5.031h-1.836Zm-.178-1.189a2.887,2.887,0,0,0,1.836-.5,1.939,1.939,0,0,0,.618-1.606,1.752,1.752,0,0,0-.625-1.506,3.4,3.4,0,0,0-2.006-.464h-1.38v4.072Z" transform="translate(-1376.283 -338)" fill="#0a090a"/>
      <rect id="Rectángulo_17" data-name="Rectángulo 17" width="1.543" height="11.22" transform="translate(67.281 2.78)" fill="#0a090a"/>
      <path id="Trazado_186" data-name="Trazado 186" d="M1479.7,352.021l-.845-2.819h-4.241l-.845,2.819h-1.56L1475.8,340.8h1.949l3.574,11.219Zm-4.712-4.072h3.493l-1.738-5.862Z" transform="translate(-1401.277 -338.022)" fill="#0a090a"/>
      <path id="Trazado_187" data-name="Trazado 187" d="M1531.924,352.021h-1.5l-.39-5.064q-.244-2.98-.276-4.575l-2.421,8.369H1525.9l-2.552-8.387q0,2.034-.214,4.706l-.374,4.95H1521.3l.926-11.219h2.079l2.356,8.158,2.24-8.158h2.1Z" transform="translate(-1432.84 -338.022)" fill="#0a090a"/>
      <path id="Trazado_188" data-name="Trazado 188" d="M1561.073,340.8v11.219h-1.543V340.8Z" transform="translate(-1457.426 -338.022)" fill="#0a090a"/>
      <path id="Trazado_189" data-name="Trazado 189" d="M1575.594,340.8v9.866h4.6l-.179,1.352h-5.962V340.8Z" transform="translate(-1466.764 -338.022)" fill="#0a090a"/>
      <path id="Trazado_190" data-name="Trazado 190" d="M1599.351,340.8v11.219h-1.543V340.8Z" transform="translate(-1482.04 -338.022)" fill="#0a090a"/>
      <path id="Trazado_191" data-name="Trazado 191" d="M1616.453,340.8l-.16,1.319h-3.1v9.9h-1.542v-9.9h-3.185V340.8Z" transform="translate(-1488.891 -338.022)" fill="#0a090a"/>
      <path id="Trazado_192" data-name="Trazado 192" d="M1637.893,352.021l-.845-2.819h-4.24l-.845,2.819h-1.56l3.591-11.219h1.949l3.574,11.219Zm-4.711-4.072h3.493l-1.738-5.862Z" transform="translate(-1503 -338.022)" fill="#0a090a"/>
      <path id="Trazado_193" data-name="Trazado 193" d="M1665.131,347.243h-1.738V352h-1.543V340.78h2.94a5.3,5.3,0,0,1,3.177.8,2.764,2.764,0,0,1,1.08,2.377,2.9,2.9,0,0,1-.6,1.905,3.671,3.671,0,0,1-1.819,1.107l3.021,5.032h-1.836Zm-.179-1.189a2.891,2.891,0,0,0,1.837-.5,1.938,1.938,0,0,0,.617-1.606,1.75,1.75,0,0,0-.625-1.506,3.4,3.4,0,0,0-2.006-.464h-1.38v4.072Z" transform="translate(-1523.222 -338)" fill="#0a090a"/>
      <path id="Trazado_194" data-name="Trazado 194" d="M1463.515,334.7h-1.546l.738-1.674h1.543Z" transform="translate(-1394.69 -333.031)" fill="#0a090a"/>
    </g>
    <path id="Trazado_172" data-name="Trazado 172" d="M1178.411,136.774c0-10.705-9.219-19.546-15.3-19.546h-28.672v52.235h19.547V163.95l4.148,5.513h20.283l-7.652-16.325A20.554,20.554,0,0,0,1178.411,136.774Zm-24.431-1.744h4.287a1.987,1.987,0,0,1,0,3.974h-4.287Zm0,8.359h4.9a6.362,6.362,0,0,0,.016-12.724h-4.913V128.5h4.287v.031c.2-.015.4-.031.611-.031a8.519,8.519,0,0,1,8.52,8.517h0a8.52,8.52,0,0,1-8.5,8.535h-4.917Zm4.9,8.678h-4.9v-2.1h4.9a13.176,13.176,0,0,0,13.163-13.189v0a13.175,13.175,0,0,0-13.16-13.191h-4.9v-2.1h4.9a15.275,15.275,0,0,1,15.258,15.292h0a15.275,15.275,0,0,1-15.258,15.292Z" transform="translate(-1100.097 -96.752)" fill="#0a090a"/>
    <path id="Trazado_173" data-name="Trazado 173" d="M1454.305,136.774c0-10.705-9.219-19.546-15.3-19.546h-28.672v52.235h19.547V163.95l4.149,5.513h20.283l-7.651-16.325A20.556,20.556,0,0,0,1454.305,136.774Zm-24.431-1.744h4.287a1.987,1.987,0,0,1,0,3.974h-4.287Zm0,8.359h4.9a6.362,6.362,0,0,0,.016-12.724h-4.913V128.5h4.287v.031c.2-.015.406-.031.612-.031a8.519,8.519,0,0,1,8.5,8.538h0a8.52,8.52,0,0,1-8.5,8.515h-4.9Zm4.9,8.678h-4.9v-2.1h4.9a13.175,13.175,0,0,0,13.161-13.19h0a13.175,13.175,0,0,0-13.16-13.191h-4.9v-2.1h4.9a15.292,15.292,0,0,1,0,30.584Z" transform="translate(-1277.508 -96.752)" fill="#0a090a"/>
    <path id="Trazado_174" data-name="Trazado 174" d="M1298.785,169.459h-20.469V117.224h35.034V128.28h-14.565v1.848h14.567v4.71h-14.567v2.034h16.872v6.47h-16.872v4.714h19.267v21.4Z" transform="translate(-1192.618 -96.75)" fill="#0a090a"/>
    <g id="Grupo_43" data-name="Grupo 43" transform="translate(227.204 20.225)">
      <path id="Trazado_175" data-name="Trazado 175" d="M1696.4,116.527h-4l-17.662,52.485h17.022l3.058-8.756,9.69-.039,3.063,8.8h6.611Zm.161,38.924,3.255-8.957,3.053,8.957Z" transform="translate(-1674.738 -116.527)" fill="#0a090a"/>
      <path id="Trazado_176" data-name="Trazado 176" d="M1764.206,169.012h-4.541l-17.691-52.485h4.448Z" transform="translate(-1717.974 -116.527)" fill="#0a090a"/>
      <path id="Trazado_177" data-name="Trazado 177" d="M1783.406,169.012h-4.539l-17.695-52.485h4.448Z" transform="translate(-1730.319 -116.527)" fill="#0a090a"/>
    </g>
    <path id="Trazado_178" data-name="Trazado 178" d="M1573.761,117.259v-.032h-19.546v52.234h19.546v-.032a26.1,26.1,0,0,0,24.746-27.369h0a26.088,26.088,0,0,0-24.746-24.8Zm0,17.361a8.806,8.806,0,0,1,0,17.449Zm0,21.846a13.164,13.164,0,0,0,11.914-14.3h0a13.16,13.16,0,0,0-11.914-11.941v-2.1a15.273,15.273,0,0,1,0,30.442Zm0,8.59v-2.163a19.6,19.6,0,0,0,18.335-20.778h0a19.593,19.593,0,0,0-18.335-18.377v-2.1a21.752,21.752,0,0,1,0,43.424Z" transform="translate(-1370.033 -96.751)" fill="#0a090a"/>
  </g>
</svg>
