<svg id="Grupo_1690" data-name="Grupo 1690" xmlns="http://www.w3.org/2000/svg" width="152.564" height="54.296" viewBox="0 0 152.564 54.296">
  <path id="Trazado_309" data-name="Trazado 309" d="M1168.3,59.994H1060.738a22.551,22.551,0,0,0,0,45.1H1168.3a22.551,22.551,0,0,0,0-45.1Zm0,43.581H1060.738a21.031,21.031,0,0,1,0-42.063H1168.3a21.031,21.031,0,0,1,0,42.061Z" transform="translate(-1038.238 -59.994)" fill="#ffc937"/>
  <g id="Grupo_567" data-name="Grupo 567" transform="translate(40.752 47.404)">
    <path id="Trazado_179" data-name="Trazado 179" d="M1276.353,340.406a2.545,2.545,0,0,1,.749.478l-.41.458a2.333,2.333,0,0,0-.6-.36,1.746,1.746,0,0,0-.635-.114,1.176,1.176,0,0,0-.7.2.665.665,0,0,0-.276.577.781.781,0,0,0,.094.4.846.846,0,0,0,.351.3,4.52,4.52,0,0,0,.745.286,4.85,4.85,0,0,1,.852.34,1.478,1.478,0,0,1,.548.5,1.447,1.447,0,0,1,.209.811,1.517,1.517,0,0,1-.233.838,1.562,1.562,0,0,1-.671.568,2.425,2.425,0,0,1-1.037.205,2.526,2.526,0,0,1-1.845-.7l.41-.458a2.682,2.682,0,0,0,.67.407,1.985,1.985,0,0,0,.757.139,1.355,1.355,0,0,0,.836-.249.851.851,0,0,0,.331-.724.883.883,0,0,0-.1-.446.914.914,0,0,0-.351-.32,3.6,3.6,0,0,0-.721-.286,3.169,3.169,0,0,1-1.222-.608,1.245,1.245,0,0,1-.386-.964,1.294,1.294,0,0,1,.217-.735,1.447,1.447,0,0,1,.607-.507,2.079,2.079,0,0,1,.887-.182A2.506,2.506,0,0,1,1276.353,340.406Z" transform="translate(-1273.49 -338.997)" fill="#fff"/>
    <path id="Trazado_180" data-name="Trazado 180" d="M1301.94,346.247l-.41-1.368h-2.058l-.41,1.368h-.757l1.743-5.445h.946l1.735,5.445Zm-2.286-1.976h1.7l-.844-2.845Z" transform="translate(-1294.006 -339.453)" fill="#fff"/>
    <path id="Trazado_181" data-name="Trazado 181" d="M1329.2,340.407a2.544,2.544,0,0,1,.749.478l-.41.458a2.335,2.335,0,0,0-.6-.36,1.748,1.748,0,0,0-.635-.114,1.177,1.177,0,0,0-.7.2.666.666,0,0,0-.276.577.779.779,0,0,0,.094.4.849.849,0,0,0,.351.3,4.528,4.528,0,0,0,.745.286,4.842,4.842,0,0,1,.852.34,1.479,1.479,0,0,1,.548.5,1.448,1.448,0,0,1,.209.811,1.517,1.517,0,0,1-.233.838,1.56,1.56,0,0,1-.67.569,2.426,2.426,0,0,1-1.037.205,2.526,2.526,0,0,1-1.845-.7l.41-.458a2.685,2.685,0,0,0,.67.407,1.982,1.982,0,0,0,.757.138,1.353,1.353,0,0,0,.836-.248.849.849,0,0,0,.331-.723.884.884,0,0,0-.1-.446.914.914,0,0,0-.351-.32,3.583,3.583,0,0,0-.721-.286,3.172,3.172,0,0,1-1.222-.608,1.245,1.245,0,0,1-.386-.964,1.3,1.3,0,0,1,.217-.735,1.445,1.445,0,0,1,.607-.507,2.079,2.079,0,0,1,.887-.182A2.512,2.512,0,0,1,1329.2,340.407Z" transform="translate(-1317.182 -338.998)" fill="#fff"/>
    <path id="Trazado_182" data-name="Trazado 182" d="M1354.663,340.8l-.078.64h-1.506v4.806h-.749v-4.806h-1.546v-.64Z" transform="translate(-1337.395 -339.453)" fill="#fff"/>
    <path id="Trazado_183" data-name="Trazado 183" d="M1380.869,343.91h-.844v2.308h-.749v-5.444h1.427a2.572,2.572,0,0,1,1.542.387,1.341,1.341,0,0,1,.525,1.153,1.41,1.41,0,0,1-.292.925,1.779,1.779,0,0,1-.883.537l1.466,2.442h-.891Zm-.087-.577a1.4,1.4,0,0,0,.891-.241.941.941,0,0,0,.3-.779.85.85,0,0,0-.3-.731,1.652,1.652,0,0,0-.973-.225h-.67v1.976Z" transform="translate(-1360.951 -339.424)" fill="#fff"/>
    <path id="Trazado_184" data-name="Trazado 184" d="M1410.842,340.8l-.087.6h-2.105v1.779h1.829v.6h-1.829v1.865h2.255v.6h-3V340.8Z" transform="translate(-1384.618 -339.453)" fill="#fff"/>
    <path id="Trazado_185" data-name="Trazado 185" d="M1434.938,343.91h-.844v2.308h-.749v-5.444h1.427a2.572,2.572,0,0,1,1.542.387,1.343,1.343,0,0,1,.524,1.154,1.41,1.41,0,0,1-.292.925,1.781,1.781,0,0,1-.883.537l1.466,2.442h-.891Zm-.087-.577a1.4,1.4,0,0,0,.891-.241.941.941,0,0,0,.3-.779.85.85,0,0,0-.3-.731,1.652,1.652,0,0,0-.974-.225h-.67v1.976Z" transform="translate(-1405.653 -339.424)" fill="#fff"/>
    <rect id="Rectángulo_17" data-name="Rectángulo 17" width="0.749" height="5.445" transform="translate(32.651 1.349)" fill="#fff"/>
    <path id="Trazado_186" data-name="Trazado 186" d="M1475.847,346.247l-.41-1.368h-2.058l-.41,1.368h-.757l1.743-5.445h.946l1.735,5.445Zm-2.286-1.976h1.7l-.844-2.845Z" transform="translate(-1437.788 -339.453)" fill="#fff"/>
    <path id="Trazado_187" data-name="Trazado 187" d="M1526.454,346.247h-.726l-.189-2.457q-.118-1.446-.134-2.22l-1.175,4.062h-.7l-1.239-4.07q0,.987-.1,2.284l-.181,2.4h-.708l.449-5.444h1.009l1.143,3.959,1.087-3.959H1526Z" transform="translate(-1478.369 -339.453)" fill="#fff"/>
    <path id="Trazado_188" data-name="Trazado 188" d="M1560.279,340.8v5.445h-.749V340.8Z" transform="translate(-1509.98 -339.453)" fill="#fff"/>
    <path id="Trazado_189" data-name="Trazado 189" d="M1574.8,340.8v4.788h2.231l-.087.656h-2.893V340.8Z" transform="translate(-1521.985 -339.453)" fill="#fff"/>
    <path id="Trazado_190" data-name="Trazado 190" d="M1598.557,340.8v5.445h-.749V340.8Z" transform="translate(-1541.627 -339.453)" fill="#fff"/>
    <path id="Trazado_191" data-name="Trazado 191" d="M1612.339,340.8l-.078.64h-1.506v4.806h-.748v-4.806h-1.546v-.64Z" transform="translate(-1550.435 -339.453)" fill="#fff"/>
    <path id="Trazado_192" data-name="Trazado 192" d="M1634.038,346.247l-.41-1.368h-2.058l-.41,1.368h-.757l1.743-5.445h.946l1.735,5.445Zm-2.286-1.976h1.7l-.844-2.845Z" transform="translate(-1568.576 -339.453)" fill="#fff"/>
    <path id="Trazado_193" data-name="Trazado 193" d="M1663.442,343.91h-.844v2.308h-.749v-5.444h1.427a2.574,2.574,0,0,1,1.542.387,1.342,1.342,0,0,1,.524,1.153,1.41,1.41,0,0,1-.292.925,1.783,1.783,0,0,1-.883.537l1.466,2.442h-.891Zm-.087-.577a1.4,1.4,0,0,0,.891-.241.94.94,0,0,0,.3-.779.849.849,0,0,0-.3-.731,1.652,1.652,0,0,0-.974-.225h-.67v1.976Z" transform="translate(-1594.574 -339.424)" fill="#fff"/>
    <path id="Trazado_194" data-name="Trazado 194" d="M1462.719,333.843h-.75l.358-.812h.749Z" transform="translate(-1429.319 -333.031)" fill="#fff"/>
  </g>
  <path id="Trazado_172" data-name="Trazado 172" d="M1155.776,126.714c0-5.2-4.474-9.486-7.427-9.486h-13.914v25.349h9.486V139.9l2.013,2.675h9.843l-3.714-7.922A9.975,9.975,0,0,0,1155.776,126.714Zm-11.856-.847H1146a.964.964,0,0,1,0,1.929h-2.08Zm0,4.057h2.376a3.087,3.087,0,0,0,.008-6.175h-2.384V122.7H1146v.015c.1-.007.2-.015.3-.015a4.134,4.134,0,0,1,4.135,4.133h0a4.135,4.135,0,0,1-4.123,4.142h-2.386Zm2.376,4.212h-2.376v-1.02h2.376a6.394,6.394,0,0,0,6.387-6.4h0a6.394,6.394,0,0,0-6.386-6.4h-2.377v-1.02h2.376a7.413,7.413,0,0,1,7.4,7.421h0a7.413,7.413,0,0,1-7.4,7.421Z" transform="translate(-1117.771 -107.291)" fill="#fff"/>
  <path id="Trazado_173" data-name="Trazado 173" d="M1431.67,126.714c0-5.2-4.474-9.486-7.427-9.486h-13.914v25.349h9.486V139.9l2.013,2.675h9.843l-3.713-7.922A9.975,9.975,0,0,0,1431.67,126.714Zm-11.856-.847h2.08a.964.964,0,0,1,0,1.929h-2.08Zm0,4.057h2.376a3.087,3.087,0,0,0,.008-6.175h-2.384V122.7h2.08v.015c.1-.007.2-.015.3-.015a4.134,4.134,0,0,1,4.125,4.143h0a4.135,4.135,0,0,1-4.124,4.132h-2.376Zm2.376,4.212h-2.376v-1.02h2.376a6.394,6.394,0,0,0,6.387-6.4h0a6.394,6.394,0,0,0-6.386-6.4h-2.377v-1.02h2.376a7.421,7.421,0,0,1,0,14.842Z" transform="translate(-1345.872 -107.291)" fill="#fff"/>
  <path id="Trazado_174" data-name="Trazado 174" d="M1288.25,142.573h-9.934V117.224h17v5.365h-7.068v.9h7.07v2.286h-7.069v.987h8.188v3.14h-8.188v2.288h9.35v10.387Z" transform="translate(-1236.728 -107.288)" fill="#fff"/>
  <g id="Grupo_43" data-name="Grupo 43" transform="translate(110.26 9.815)">
    <path id="Trazado_175" data-name="Trazado 175" d="M1685.248,116.527h-1.939L1674.738,142H1683l1.484-4.249,4.7-.019,1.487,4.268h3.208Zm.078,18.89,1.58-4.347,1.482,4.347Z" transform="translate(-1674.738 -116.527)" fill="#fff"/>
    <path id="Trazado_176" data-name="Trazado 176" d="M1752.763,142h-2.2l-8.585-25.47h2.159Z" transform="translate(-1730.327 -116.527)" fill="#fff"/>
    <path id="Trazado_177" data-name="Trazado 177" d="M1771.962,142h-2.2l-8.587-25.47h2.159Z" transform="translate(-1746.199 -116.527)" fill="#fff"/>
  </g>
  <path id="Trazado_178" data-name="Trazado 178" d="M1563.7,117.242v-.015h-9.486v25.349h9.486v-.016a12.664,12.664,0,0,0,12.009-13.282h0a12.66,12.66,0,0,0-12.009-12.036Zm0,8.425a4.274,4.274,0,0,1,0,8.468Zm0,10.6a6.388,6.388,0,0,0,5.782-6.94h0a6.386,6.386,0,0,0-5.782-5.795v-1.019a7.412,7.412,0,0,1,0,14.773Zm0,4.169v-1.05a9.511,9.511,0,0,0,8.9-10.083h0a9.509,9.509,0,0,0-8.9-8.918v-1.02a10.556,10.556,0,0,1,0,21.073Z" transform="translate(-1464.833 -107.29)" fill="#fff"/>
</svg>
