<svg xmlns="http://www.w3.org/2000/svg" width="15.027" height="15.054" viewBox="0 0 15.027 15.054">
  <path id="Icon_feather-phone-call" data-name="Icon feather-phone-call" d="M11.823,4.176a3.345,3.345,0,0,1,2.642,2.642M11.823,1.5a6.021,6.021,0,0,1,5.318,5.312m-.669,5.338v2.007a1.338,1.338,0,0,1-1.458,1.338,13.239,13.239,0,0,1-5.773-2.054A13.045,13.045,0,0,1,5.227,9.427a13.239,13.239,0,0,1-2.054-5.8A1.338,1.338,0,0,1,4.5,2.169H6.511A1.338,1.338,0,0,1,7.849,3.32,8.589,8.589,0,0,0,8.318,5.2a1.338,1.338,0,0,1-.3,1.412l-.85.85a10.7,10.7,0,0,0,4.014,4.014l.85-.85a1.338,1.338,0,0,1,1.412-.3,8.589,8.589,0,0,0,1.88.468A1.338,1.338,0,0,1,16.472,12.15Z" transform="translate(-2.667 -0.948)" fill="none" stroke="#ffc937" stroke-linecap="round" stroke-linejoin="round" stroke-width="1"/>
</svg>
