<svg xmlns="http://www.w3.org/2000/svg" width="8.036" height="13.461" viewBox="0 0 8.036 13.461">
  <g id="pin" transform="translate(-14.5)">
    <path id="Trazado_10829" data-name="Trazado 10829" d="M22.536,4.018a4.018,4.018,0,1,0-4.286,4v5.171a.268.268,0,1,0,.536,0V8.022A4.019,4.019,0,0,0,22.536,4.018ZM18.518,7.5A3.482,3.482,0,1,1,22,4.018,3.486,3.486,0,0,1,18.518,7.5Z" fill="#515a68"/>
    <path id="Trazado_10830" data-name="Trazado 10830" d="M21.571,7a1.071,1.071,0,1,0,1.071,1.071A1.073,1.073,0,0,0,21.571,7Zm0,1.607a.536.536,0,1,1,.536-.536A.536.536,0,0,1,21.571,8.607Z" transform="translate(-4.393 -5.125)" fill="#515a68"/>
  </g>
</svg>
