<svg xmlns="http://www.w3.org/2000/svg" width="23.289" height="23.291" viewBox="0 0 23.289 23.291">
  <path id="Trazado_10739" data-name="Trazado 10739" d="M3097.224-1257.453l-4.338-4.338a10.422,10.422,0,0,0,2.327-6.569h0a10.489,10.489,0,0,0-10.477-10.475,10.488,10.488,0,0,0-10.474,10.476,10.487,10.487,0,0,0,10.475,10.476,10.423,10.423,0,0,0,6.568-2.327l4.338,4.339a1.115,1.115,0,0,0,.791.327,1.113,1.113,0,0,0,.79-.327A1.118,1.118,0,0,0,3097.224-1257.453Zm-20.725-10.906a8.249,8.249,0,0,1,8.238-8.24,8.25,8.25,0,0,1,8.241,8.24,8.211,8.211,0,0,1-2.393,5.8c-.009.008-.021.011-.03.019s-.011.021-.019.03a8.213,8.213,0,0,1-5.8,2.392A8.248,8.248,0,0,1,3076.5-1268.359Z" transform="translate(-3074.262 1278.835)" fill="#fff"/>
</svg>
