<svg xmlns="http://www.w3.org/2000/svg" width="22.672" height="22.672" viewBox="0 0 22.672 22.672">
  <path id="Icon_awesome-whatsapp" data-name="Icon awesome-whatsapp" d="M19.277,5.545A11.239,11.239,0,0,0,1.594,19.1L0,24.922l5.957-1.564a11.2,11.2,0,0,0,5.37,1.366h.005A11.343,11.343,0,0,0,22.672,13.49a11.279,11.279,0,0,0-3.4-7.945ZM11.331,22.832a9.322,9.322,0,0,1-4.757-1.3l-.339-.2L2.7,22.255l.941-3.446-.223-.354A9.356,9.356,0,1,1,20.775,13.49,9.442,9.442,0,0,1,11.331,22.832Zm5.122-6.994c-.278-.142-1.66-.82-1.918-.911s-.445-.142-.633.142-.724.911-.891,1.1-.329.213-.607.071A7.641,7.641,0,0,1,8.583,12.9c-.288-.5.288-.461.825-1.533a.52.52,0,0,0-.025-.491c-.071-.142-.633-1.523-.865-2.085-.228-.547-.461-.471-.633-.481s-.349-.01-.536-.01a1.04,1.04,0,0,0-.749.349A3.155,3.155,0,0,0,5.617,11a5.5,5.5,0,0,0,1.144,2.9,12.545,12.545,0,0,0,4.8,4.241c1.781.769,2.48.835,3.37.7a2.875,2.875,0,0,0,1.893-1.336,2.348,2.348,0,0,0,.162-1.336C16.918,16.046,16.731,15.975,16.453,15.838Z" transform="translate(0 -2.25)" fill="#283142"/>
</svg>
